<?xml version="1.0" standalone="no"?>
<!DOCTYPE svg PUBLIC "-//W3C//DTD SVG 20010904//EN"
 "http://www.w3.org/TR/2001/REC-SVG-20010904/DTD/svg10.dtd">
<svg version="1.0" xmlns="http://www.w3.org/2000/svg"
 width="700.000000pt" height="700.000000pt" viewBox="0 0 700.000000 700.000000"
 preserveAspectRatio="xMidYMid meet">
<metadata>
Created by potrace 1.11, written by Peter Selinger 2001-2013
</metadata>
<g transform="translate(0.000000,700.000000) scale(0.100000,-0.100000)"
fill="#000000" stroke="none">
<path d="M3429 6977 c-81 -28 -139 -66 -172 -115 -164 -241 204 -479 510 -331
52 25 113 87 134 136 50 117 -35 257 -186 308 -81 28 -207 29 -286 2z"/>
<path d="M4572 6369 c-72 -12 -149 -53 -198 -104 -154 -162 -2 -390 266 -399
122 -5 211 23 289 91 117 100 106 258 -25 350 -81 57 -213 82 -332 62z"/>
<path d="M1315 5743 c-109 -13 -232 -90 -271 -170 -20 -44 -23 -128 -4 -164
63 -118 204 -187 359 -176 82 6 118 15 172 42 131 67 184 183 135 295 -30 68
-92 118 -182 149 -61 20 -150 30 -209 24z"/>
<path d="M5730 5733 c-75 -18 -71 -17 -107 -36 -125 -66 -177 -191 -124 -294
57 -113 188 -176 351 -169 188 8 319 110 325 251 8 171 -227 301 -445 248z"/>
<path d="M2415 5109 c-296 -40 -397 -309 -167 -450 142 -87 346 -79 474 18
130 99 128 266 -5 360 -79 56 -201 85 -302 72z"/>
<path d="M3455 4467 c-75 -20 -120 -45 -169 -93 -68 -66 -87 -146 -54 -224 26
-61 71 -105 143 -141 120 -58 255 -59 378 -1 106 50 162 126 160 218 -2 101
-75 187 -197 231 -57 20 -199 26 -261 10z"/>
<path d="M944 4378 c21 -66 30 -85 93 -198 77 -138 121 -236 131 -291 13 -70
-1 -875 -17 -987 -4 -29 -14 -59 -22 -67 -8 -8 -57 -24 -109 -36 -232 -50
-304 -127 -314 -337 -7 -132 123 -356 237 -411 55 -27 81 -26 107 1 24 27 24
29 -46 177 -87 183 -75 211 97 225 l47 4 11 -76 c7 -43 16 -106 21 -142 9 -66
6 -463 -5 -625 -9 -127 -30 -153 -161 -204 -18 -7 -44 -25 -58 -40 l-27 -28
53 -45 c55 -47 171 -126 317 -218 96 -60 102 -63 311 -180 85 -48 172 -97 192
-108 61 -35 72 -33 73 13 1 43 -11 69 -129 275 -86 149 -97 186 -121 410 -29
266 -39 852 -16 907 18 44 55 60 141 62 41 1 86 3 100 4 29 2 35 -12 177 -418
223 -641 366 -1099 374 -1202 6 -76 -16 -106 -117 -158 -103 -55 -102 -51 -36
-118 66 -67 104 -92 385 -253 114 -65 220 -126 235 -135 15 -8 61 -34 102 -56
41 -22 103 -57 137 -77 76 -45 83 -45 73 -3 -24 94 -55 157 -153 313 -95 153
-121 220 -311 799 -198 603 -260 787 -325 950 -29 72 -60 153 -70 180 -11 28
-33 88 -51 135 -17 47 -38 106 -46 132 l-15 47 103 98 c171 164 202 196 251
260 90 118 136 151 257 189 55 17 89 39 124 81 l26 31 -47 40 c-45 37 -166
110 -313 190 -36 20 -82 46 -102 59 -21 13 -39 23 -42 23 -2 0 -48 25 -102 56
-55 31 -117 66 -139 78 -22 13 -65 37 -97 55 -63 36 -70 33 -70 -34 0 -49 21
-94 108 -241 54 -91 57 -97 51 -148 -8 -79 -49 -151 -136 -236 -90 -89 -221
-172 -335 -212 -85 -29 -111 -34 -120 -20 -17 28 -28 178 -28 387 0 286 6 384
26 424 19 36 72 81 133 112 49 25 67 57 58 100 -10 45 -117 135 -220 184 -49
23 -119 57 -155 74 -82 39 -110 55 -190 112 -126 88 -212 133 -292 153 l-27 6
13 -42z"/>
<path d="M5415 3945 c-122 -27 -273 -97 -429 -198 -75 -49 -493 -361 -580
-433 -37 -31 -69 -96 -59 -120 3 -7 35 -24 72 -39 109 -41 104 -34 137 -190 3
-16 7 -365 9 -775 1 -410 6 -781 9 -825 14 -153 16 -290 5 -323 -6 -18 -49
-97 -95 -174 -76 -128 -104 -188 -104 -227 0 -10 10 -12 42 -7 65 11 151 51
308 146 8 5 56 32 105 60 112 65 212 131 266 176 22 19 45 34 50 34 25 0 1 33
-77 108 -47 46 -92 98 -99 116 -11 26 -14 108 -14 377 -1 331 -4 483 -16 784
-3 77 -7 205 -10 285 -3 80 -8 195 -11 255 -14 282 -13 339 7 383 27 59 76
103 150 139 90 43 133 55 202 58 209 8 350 -136 425 -435 12 -47 24 -103 28
-125 4 -22 8 -49 10 -59 23 -129 21 -512 -3 -631 -3 -16 -7 -43 -8 -60 -4 -53
-46 -269 -72 -370 -95 -377 -301 -756 -553 -1019 -218 -226 -501 -390 -700
-403 -65 -4 -81 -1 -120 19 -60 31 -92 93 -93 181 -1 73 13 107 103 247 52 80
60 100 56 129 -8 64 -67 86 -133 51 -71 -38 -147 -129 -203 -243 -125 -258
-119 -487 17 -606 134 -119 318 -106 621 44 271 134 465 268 645 447 121 120
141 143 228 253 115 146 227 323 307 481 105 209 215 514 257 714 17 81 45
236 51 280 4 30 8 66 10 80 18 139 24 434 11 565 -27 265 -88 472 -185 620
-76 115 -154 181 -262 221 -59 21 -226 26 -305 9z"/>
</g>
</svg>
