<?xml version="1.0" standalone="no"?>
<!DOCTYPE svg PUBLIC "-//W3C//DTD SVG 20010904//EN"
 "http://www.w3.org/TR/2001/REC-SVG-20010904/DTD/svg10.dtd">
<svg version="1.0" xmlns="http://www.w3.org/2000/svg"
 width="700.000000pt" height="700.000000pt" viewBox="0 0 700.000000 700.000000"
 preserveAspectRatio="xMidYMid meet">
<metadata>
Created by potrace 1.11, written by Peter Selinger 2001-2013
</metadata>
<g transform="translate(0.000000,700.000000) scale(0.100000,-0.100000)"
fill="#000000" stroke="none">
<path d="M5366 5429 c-171 -11 -412 -42 -577 -74 -177 -34 -509 -115 -509
-124 0 -3 35 -24 78 -45 42 -21 97 -51 122 -66 l45 -29 75 19 c350 91 802 149
1080 137 446 -19 710 -160 777 -414 21 -79 13 -226 -16 -313 -94 -279 -359
-605 -759 -934 l-130 -108 55 -76 c30 -42 57 -79 58 -81 2 -2 59 44 127 101
639 544 950 1057 874 1439 -61 302 -326 493 -764 553 -143 19 -378 26 -536 15z"/>
<path d="M3325 5169 c-278 -29 -573 -141 -805 -307 -121 -86 -296 -261 -382
-382 -231 -324 -345 -734 -310 -1112 15 -166 33 -252 82 -399 89 -270 269
-545 469 -718 l63 -55 71 18 c311 81 862 283 1247 459 l165 76 7 133 c7 151
29 248 81 362 124 267 366 461 652 521 115 24 287 22 399 -4 49 -12 91 -19 94
-17 8 9 -39 208 -75 309 -45 132 -136 307 -221 427 -86 121 -261 296 -382 382
-338 240 -751 349 -1155 307z"/>
<path d="M1539 3927 c-262 -191 -417 -322 -627 -530 -248 -246 -390 -429 -497
-642 -141 -282 -160 -499 -61 -700 112 -227 371 -364 776 -412 104 -12 186
-14 355 -9 599 16 1313 186 2090 496 147 58 436 184 486 211 14 7 10 20 -30
101 -25 51 -47 94 -48 96 0 2 -24 -8 -52 -22 -78 -40 -448 -197 -616 -261
-494 -190 -1032 -339 -1445 -399 -186 -27 -308 -36 -492 -36 -209 0 -349 18
-483 60 -309 100 -449 330 -376 620 60 239 277 541 595 829 128 115 341 290
449 366 45 32 58 47 63 75 14 79 43 216 49 233 4 9 3 17 -1 16 -5 0 -66 -42
-135 -92z"/>
<path d="M4704 3556 c-370 -85 -614 -445 -550 -814 53 -309 280 -534 591 -588
149 -26 285 -5 435 69 117 57 248 186 308 303 61 119 86 232 79 364 -9 190
-74 337 -207 470 -138 138 -282 199 -480 206 -75 2 -136 -1 -176 -10z"/>
<path d="M4150 2149 c-205 -98 -717 -309 -750 -309 -6 0 -8 -4 -5 -10 8 -13
136 -13 266 1 217 22 416 80 603 177 107 55 108 57 85 72 -13 8 -47 34 -76 58
-29 23 -54 42 -55 42 -2 0 -32 -14 -68 -31z"/>
</g>
</svg>
