<svg xmlns="http://www.w3.org/2000/svg" x="0px" y="0px" viewBox="0 0 100 100">
    <g>
        <circle style="fill:#C1D7E9" cx="50" cy="50" r="50"/>
    </g>
    <path style="fill:#0D0F0F" d="M67.5,83.7c-4.8,4.9-10.7,7.3-17.7,7.3c-7.9,0-14.1-2.7-18.7-8.1c-4.4-5.1-6.5-11.7-6.5-19.6
        c0-8.5,3.7-18.3,11.1-29.2c6.1-9,13.2-16.8,21.4-23.6c-1.2,5.5-1.8,9.4-1.8,11.7c0,5.3,1.7,10.5,5,15.5c4.1,6,7.2,10.4,9.4,13.3
        c3.3,5,5,10,5,14.7C74.7,72.9,72.3,78.9,67.5,83.7z M67.4,56.4c-1.3-2.9-2.8-4.8-4.5-5.7c0.3,0.5,0.4,1.2,0.4,2.2
        c0,1.8-0.5,4.4-1.5,7.7l-1.7,5.1c0,3,1.5,4.5,4.5,4.5c3.2,0,4.7-2.1,4.7-6.3C69.3,61.7,68.6,59.2,67.4,56.4z"/>
</svg>
