<svg xmlns="http://www.w3.org/2000/svg" x="0px" y="0px" viewBox="735 525 100 100">
    <g>
	<path style="fill:#CCC2C0" d="M835,575c0,27.6-22.4,50-50,50s-50-22.4-50-50s22.4-50,50-50S835,547.4,835,575z"/>
	<path style="fill:#0D0F0F" d="M784.7,537c2.5,5,5.5,9.8,9.1,14.5c1.5,2,3.3,4,5.3,6.1c1.9,2.1,4.1,4.3,6.5,6.3c2.4,2.1,4.9,4.1,7.8,6
		s5.8,3.6,9.1,5.1c-4.8,2.6-9.5,5.7-14.2,9.3c-2,1.5-4,3.3-6.1,5.3c-2.1,2-4.2,4.2-6.3,6.6c-2,2.4-4,5-5.9,7.8
		c-1.9,2.8-3.6,5.8-5.1,9c-2.4-4.7-5.4-9.3-9-14c-3.1-3.9-7-8.1-11.7-12.4c-4.7-4.4-10.4-8.2-17-11.7c4.8-2.5,9.5-5.6,14.2-9.2
		c4-3.2,8.1-7.1,12.4-11.8C777.9,549.3,781.6,543.6,784.7,537z M779.2,589.9c2.2,2.8,4.1,5.7,5.5,8.6c1.9-4,4.1-7.5,6.8-10.4
		c2.6-2.9,5.2-5.3,7.7-7.3c2.8-2.2,5.8-4.1,8.8-5.8c-4.1-1.9-7.6-4.1-10.4-6.8c-2.9-2.6-5.3-5.2-7.2-7.7c-2.2-2.8-4.1-5.8-5.6-9
		c-1.9,4.1-4.1,7.6-6.7,10.5c-2.6,2.9-5.1,5.3-7.6,7.3c-2.8,2.2-5.8,4.1-8.8,5.6c4.1,2.1,7.6,4.5,10.5,7.2S777.3,587.5,779.2,589.9
		L779.2,589.9z"/>
    </g>
</svg>
