<?xml version="1.0" encoding="UTF-8" standalone="no"?>
<svg
   xmlns:dc="http://purl.org/dc/elements/1.1/"
   xmlns:cc="http://creativecommons.org/ns#"
   xmlns:rdf="http://www.w3.org/1999/02/22-rdf-syntax-ns#"
   xmlns:svg="http://www.w3.org/2000/svg"
   xmlns="http://www.w3.org/2000/svg"
   xmlns:sodipodi="http://sodipodi.sourceforge.net/DTD/sodipodi-0.dtd"
   xmlns:inkscape="http://www.inkscape.org/namespaces/inkscape"
   width="92.775002mm"
   height="92.775002mm"
   viewBox="0 0 92.775001 92.775003"
   version="1.1"
   id="svg8"
   inkscape:version="1.0.2-2 (e86c870879, 2021-01-15)"
   sodipodi:docname="kndLogo_.svg"
   inkscape:export-filename="C:\Work\Terra 2170\public\test.png"
   inkscape:export-xdpi="68.554497"
   inkscape:export-ydpi="68.554497">
  <defs
     id="defs2">
    <rect
       x="109.55404"
       y="128.57095"
       width="44.648438"
       height="46.095379"
       id="rect214" />
    <rect
       x="57.464191"
       y="133.94531"
       width="24.804688"
       height="13.642578"
       id="rect208" />
    <inkscape:perspective
       sodipodi:type="inkscape:persp3d"
       inkscape:vp_x="-110.76453 : 63.949944 : 0"
       inkscape:vp_y="542.6142 : 313.27848 : 0"
       inkscape:vp_z="5.9989613e-15 : -97.973716 : 0"
       inkscape:persp3d-origin="306.01138 : -396.05395 : 1"
       id="perspective10" />
  </defs>
  <sodipodi:namedview
     id="base"
     pagecolor="#ffffff"
     bordercolor="#666666"
     borderopacity="1.0"
     inkscape:pageopacity="0.0"
     inkscape:pageshadow="2"
     inkscape:zoom="1.4142136"
     inkscape:cx="184.84372"
     inkscape:cy="148.34922"
     inkscape:document-units="mm"
     inkscape:current-layer="layer1"
     inkscape:document-rotation="0"
     showgrid="false"
     inkscape:window-width="1840"
     inkscape:window-height="1057"
     inkscape:window-x="72"
     inkscape:window-y="-8"
     inkscape:window-maximized="1"
     inkscape:snap-midpoints="true"
     showguides="true"
     inkscape:guide-bbox="true" />
  <metadata
     id="metadata5">
    <rdf:RDF>
      <cc:Work
         rdf:about="">
        <dc:format>image/svg+xml</dc:format>
        <dc:type
           rdf:resource="http://purl.org/dc/dcmitype/StillImage" />
        <dc:title></dc:title>
      </cc:Work>
    </rdf:RDF>
  </metadata>
  <g
     inkscape:groupmode="layer"
     id="layer3"
     inkscape:label="White"
     style="display:none">
    <rect
       style="fill:none;stroke-width:0.542323;stroke-linecap:round"
       id="rect164"
       width="107.38889"
       height="107.38889"
       x="-5.6126599"
       y="-7.1093693"
       rx="0.095986679"
       ry="0.095986679"
       inkscape:export-filename="C:\Work\Terra 2170\public\test.png"
       inkscape:export-xdpi="60.550026"
       inkscape:export-ydpi="60.550026" />
  </g>
  <g
     inkscape:groupmode="layer"
     id="layer2"
     inkscape:label="Die"
     style="display:none"
     transform="translate(-3.807774)">
    <g
       sodipodi:type="inkscape:box3d"
       id="g91"
       style="stroke-width:2.13543;stroke-linecap:round"
       inkscape:perspectiveID="#perspective10"
       inkscape:corner0="5.0479604 : 0.5548147 : 0 : 1"
       inkscape:corner7="4.6355367 : 0.47135755 : 0.56326431 : 1">
      <path
         sodipodi:type="inkscape:box3dside"
         id="path103"
         style="fill:#e9e9ff;fill-rule:evenodd;stroke:none;stroke-linejoin:round"
         inkscape:box3dsidetype="11"
         d="M 51.734511,47.385761 97.416428,73.760232 52.131395,99.905559 6.4494783,73.531088 Z"
         points="97.416428,73.760232 52.131395,99.905559 6.4494783,73.531088 51.734511,47.385761 " />
      <path
         sodipodi:type="inkscape:box3dside"
         id="path93"
         style="fill:#353564;fill-rule:evenodd;stroke:none;stroke-linejoin:round"
         inkscape:box3dsidetype="6"
         d="M 51.734511,-7.7993335 6.4494783,18.345994 V 73.531088 L 51.734511,47.385761 Z"
         points="6.4494783,18.345994 6.4494783,73.531088 51.734511,47.385761 51.734511,-7.7993335 " />
      <path
         sodipodi:type="inkscape:box3dside"
         id="path95"
         style="fill:#4d4d9f;fill-rule:evenodd;stroke:none;stroke-linejoin:round"
         inkscape:box3dsidetype="5"
         d="M 51.734511,-7.7993335 97.416428,18.575138 V 73.760232 L 51.734511,47.385761 Z"
         points="97.416428,18.575138 97.416428,73.760232 51.734511,47.385761 51.734511,-7.7993335 " />
      <path
         sodipodi:type="inkscape:box3dside"
         id="path101"
         style="fill:#afafde;fill-rule:evenodd;stroke:none;stroke-linejoin:round"
         inkscape:box3dsidetype="13"
         d="M 6.4494783,18.345994 52.131395,44.720465 V 99.905559 L 6.4494783,73.531088 Z"
         points="52.131395,44.720465 52.131395,99.905559 6.4494783,73.531088 6.4494783,18.345994 " />
      <path
         sodipodi:type="inkscape:box3dside"
         id="path99"
         style="fill:#d7d7ff;fill-rule:evenodd;stroke:none;stroke-linejoin:round"
         inkscape:box3dsidetype="14"
         d="M 97.416428,18.575138 52.131395,44.720465 V 99.905559 L 97.416428,73.760232 Z"
         points="52.131395,44.720465 52.131395,99.905559 97.416428,73.760232 97.416428,18.575138 " />
      <path
         sodipodi:type="inkscape:box3dside"
         id="path97"
         style="fill:#8686bf;fill-rule:evenodd;stroke:none;stroke-linejoin:round"
         inkscape:box3dsidetype="3"
         d="M 51.734511,-7.7993335 97.416428,18.575138 52.131395,44.720465 6.4494783,18.345994 Z"
         points="97.416428,18.575138 52.131395,44.720465 6.4494783,18.345994 51.734511,-7.7993335 " />
    </g>
  </g>
  <g
     inkscape:groupmode="layer"
     id="layer4"
     inkscape:label="WideWhite"
     style="display:none">
    <rect
       style="fill:none;stroke-width:0.52169;stroke-linecap:round"
       id="rect263"
       width="227.3333"
       height="110"
       x="-65.855209"
       y="-7.8577237"
       rx="0.086423233"
       ry="0.098650493"
       inkscape:export-filename="C:\Work\Terra 2170\public\mstile-310x150.png"
       inkscape:export-xdpi="34.636364"
       inkscape:export-ydpi="34.636364" />
  </g>
  <g
     inkscape:groupmode="layer"
     id="g267"
     inkscape:label="LargeWhite"
     style="display:none">
    <rect
       style="fill:none;stroke-width:0.749976;stroke-linecap:round"
       id="rect265"
       width="227.33299"
       height="227.33299"
       x="-65.625999"
       y="-61.271538"
       rx="0.086423121"
       ry="0.20387739"
       inkscape:export-filename="C:\Work\Terra 2170\public\mstile-310x310.png"
       inkscape:export-xdpi="34.636364"
       inkscape:export-ydpi="34.636364" />
  </g>
  <g
     inkscape:label="Layer 1"
     inkscape:groupmode="layer"
     id="layer1"
     transform="translate(-4.4746481,-0.49481964)"
     style="display:inline">
    <g
       aria-label="K"
       transform="matrix(1,0.57735027,0,1,-1.0583333,0)"
       id="text228"
       style="font-style:normal;font-variant:normal;font-weight:normal;font-stretch:normal;font-size:63.4938px;line-height:1.25;font-family:Teutonic;-inkscape-font-specification:'Teutonic, Normal';font-variant-ligatures:normal;font-variant-caps:normal;font-variant-numeric:normal;font-variant-east-asian:normal;fill:#000000;stroke-width:0.330696">
      <path
         d="m 17.865857,24.418369 q 1.015901,-0.50795 2.412764,-0.50795 0.888913,0 1.714333,0.126988 0.825419,0.126987 1.714332,0.126987 0.952407,0 1.904814,-0.190481 0.952407,-0.190482 1.904814,-0.190482 0.507951,0 1.33337,0.253976 0.82542,0.190481 0.761926,0.888913 0,0.634938 -0.444457,1.079394 -0.444456,0.444457 -0.952407,1.079395 -0.50795,0.571444 -1.015901,1.460357 -0.444456,0.888914 -0.444456,2.412765 0,0.698432 -0.06349,1.968308 0,1.269876 0,2.603246 0,1.333369 0.06349,2.539752 0.126987,1.142888 0.380963,1.650838 1.0159,-0.698431 2.34927,-2.031801 1.33337,-1.396864 2.539752,-2.984209 1.206383,-1.587345 2.031802,-3.17469 0.888913,-1.650839 0.888913,-2.920715 V 28.10101 Q 34.374245,27.339084 33.548826,26.577159 32.7869,25.815233 32.7869,24.735838 q 0,-0.190481 0.06349,-0.380962 0.06349,-0.190482 0.126987,-0.380963 2.66674,0 5.206492,-0.06349 2.603246,-0.06349 5.206492,-0.06349 0.380963,0 0.761925,0.126988 0.380963,0.06349 0.698432,0.190481 -0.571444,1.460358 -1.84132,2.539752 -1.269876,1.079395 -2.222283,2.349271 -0.571444,0.825419 -1.015901,1.714332 -0.444457,0.888914 -0.952407,1.777827 -0.888913,1.460357 -1.904814,2.920715 -0.952407,1.396863 -1.84132,2.857221 -0.126988,0.126987 -0.190482,0.253975 0,0.06349 0,0.253975 0,0.253975 0.444457,1.206382 0.444457,0.952407 1.015901,2.095296 0.571444,1.142888 1.079394,2.222283 0.571445,1.015901 0.761926,1.396864 0.253975,0.571444 0.761926,1.84132 0.50795,1.269876 1.142888,2.920715 0.698432,1.587345 1.396864,3.365171 0.698432,1.714333 1.269876,3.238184 0.634938,1.460357 1.142888,2.603246 0.507951,1.079394 0.698432,1.33337 0.444457,0.571444 0.952407,1.079394 0.571444,0.444457 1.015901,1.015901 0.444456,0.50795 0.761925,1.142888 0.380963,0.634938 0.444457,1.396864 -1.968308,0 -3.936616,0.06349 -1.968307,0 -3.936615,0 -1.015901,0 -1.968308,0 -0.952407,0 -1.968308,-0.06349 -0.317469,-0.190481 -0.698432,-0.380963 -0.317469,-0.190481 -0.698432,-0.317469 0.317469,-0.444456 0.761926,-0.952407 0.50795,-0.50795 0.952407,-1.015901 0.50795,-0.571444 0.825419,-1.142888 0.317469,-0.571444 0.317469,-1.079395 0,-0.50795 -0.444456,-1.84132 -0.444457,-1.396863 -1.142889,-3.17469 -0.634938,-1.84132 -1.523851,-3.873122 -0.825419,-2.031801 -1.650839,-3.809628 -0.761925,-1.84132 -1.396863,-3.238184 -0.634938,-1.396863 -0.952407,-1.904814 -0.761926,0.761926 -1.460358,1.079395 -0.634938,0.317469 -1.142888,0.698432 -0.444457,0.317469 -0.761926,0.952407 -0.253975,0.571444 -0.253975,1.904814 0,0.888913 0,2.984208 0,2.095296 0.126988,4.317579 0.126987,2.222283 0.380962,4.127097 0.253976,1.904814 0.698432,2.476258 0.634938,0.761926 1.269876,1.523851 0.634938,0.698432 1.206383,1.460358 v 1.206382 q -0.634938,0.126988 -1.269876,0.126988 -0.634939,0 -1.33337,0 -0.952407,0 -2.285777,0.06349 -1.33337,0 -2.793727,-0.06349 -1.396864,-0.06349 -2.730234,-0.190482 -1.269876,-0.126987 -2.095295,-0.444456 0.571444,-1.206383 1.587345,-2.031802 1.015901,-0.888913 1.523851,-2.095295 0.126988,-1.33337 0.190481,-2.66674 0.06349,-1.396864 0.126988,-2.730233 0.06349,-1.777827 -0.06349,-3.49216 -0.126987,-1.714332 -0.50795,-3.428665 -0.82542,0.507951 -1.714333,1.142889 -0.888913,0.571444 -0.888913,1.650838 0,0.190482 0.190481,0.571445 0.253976,0.317469 0.507951,0.698431 0.253975,0.380963 0.50795,0.82542 0.253975,0.380963 0.380963,0.698432 -0.444457,1.396863 -1.84132,1.396863 -0.571445,0 -1.142889,-0.317469 -0.50795,-0.380963 -0.952407,-0.888913 -0.444456,-0.50795 -0.698432,-1.079395 -0.190481,-0.634938 -0.190481,-1.206382 0.06349,-2.412764 0.952407,-3.746134 0.888913,-1.396864 1.968308,-2.285777 1.079395,-0.952407 1.968308,-1.587345 0.952407,-0.698432 1.015901,-1.650839 0.126987,-1.079394 0.126987,-2.031801 0.06349,-1.015901 0.126988,-2.095296 l 0.06349,-8.571663 q 0,-0.888913 -0.444457,-1.587345 -0.380963,-0.761926 -0.952407,-1.396864 -0.50795,-0.698431 -1.079395,-1.333369 -0.50795,-0.698432 -0.761925,-1.523852 z"
         style="fill:#000000;stroke-width:0.330696"
         id="path269" />
    </g>
    <g
       aria-label="D"
       transform="matrix(1,-0.57735027,0,1,-1.0583333,0)"
       id="text232"
       style="font-style:normal;font-variant:normal;font-weight:normal;font-stretch:normal;font-size:56.003px;line-height:1.25;font-family:Teutonic;-inkscape-font-specification:'Teutonic, Normal';font-variant-ligatures:normal;font-variant-caps:normal;font-variant-numeric:normal;font-variant-east-asian:normal;fill:#000000;stroke-width:0.291682">
      <path
         d="m 72.995465,84.912853 q 2.80015,0 4.928264,0.952051 2.184117,0.952051 3.808204,2.576138 1.624087,1.624087 2.688144,3.752201 1.12006,2.128114 1.792096,4.536243 0.672036,2.352126 0.952051,4.872264 0.280015,2.46413 0.224012,4.76025 -0.056,3.97621 -1.064057,7.95243 -1.008054,3.92021 -3.136168,7.11238 -2.128114,3.19217 -5.432291,5.15227 -3.304177,2.01611 -7.952426,2.01611 -1.12006,0 -2.408129,-0.112 -1.232066,-0.056 -2.464131,-0.33602 -1.232066,-0.28002 -2.352126,-0.78404 -1.12006,-0.44803 -1.960105,-1.23207 -1.232066,-1.06406 -2.184117,-2.80015 -0.896048,-1.73609 -0.840045,-3.36018 0,-0.78404 0.224012,-1.73609 0.280015,-1.00806 0.784042,-1.8481 0.504027,-0.84005 1.232066,-1.40008 0.728039,-0.56003 1.68009,-0.56003 l 0.504027,0.056 q 0.504027,0.28001 0.896048,0.78404 0.392021,0.44802 0.392021,1.06406 l -0.056,0.39202 q -0.616033,0.72804 -1.400075,1.40007 -0.728039,0.61603 -0.728039,1.56809 0,1.45607 0.616033,2.52013 0.672036,1.06406 1.68009,1.73609 1.064057,0.67204 2.352125,0.95205 1.344072,0.33602 2.632141,0.33602 3.808204,0 6.384342,-1.8481 2.576138,-1.79209 4.144222,-4.53624 1.568084,-2.80015 2.24012,-6.16033 0.728039,-3.36018 0.784042,-6.49635 0,-1.56808 -0.168009,-3.47218 -0.112006,-1.90411 -0.56003,-3.808207 -0.392021,-1.904102 -1.12006,-3.696198 -0.728039,-1.792096 -1.848099,-3.192171 -1.12006,-1.400075 -2.632141,-2.24012 -1.512081,-0.840045 -3.528189,-0.840045 -0.616033,0 -1.064057,0.504027 -0.392021,0.448024 -0.392021,1.064057 v 0.504027 q 0.280015,6.384342 0.504027,12.76868 0.224012,6.38435 0.112006,12.76869 0,0.61603 0.280015,1.34407 0.336018,0.67204 0.784042,1.40007 0.504027,0.67204 0.952051,1.34408 0.448024,0.67203 0.728039,1.23206 -1.12006,0.28002 -2.296123,0.39202 -1.176063,0.056 -2.352126,0.056 -1.456078,0 -2.968159,0 -1.51208,0 -2.800149,-0.67204 0,-0.67204 0.392021,-1.23207 0.448024,-0.61603 0.952051,-1.12006 0.504027,-0.50402 0.95205,-1.00805 0.448024,-0.50403 0.448024,-1.12006 0,-1.9601 -0.168009,-3.86421 -0.168009,-1.9601 -0.112006,-3.92021 0.056,-3.19217 0,-6.32834 -0.056,-3.136163 0,-6.328334 0.056,-1.568084 -0.056,-3.304177 -0.056,-1.792096 -0.448024,-3.248174 -0.112005,-0.392021 -0.504026,-0.784042 -0.392021,-0.448024 -0.840045,-0.840045 -0.392021,-0.392021 -0.728039,-0.672036 -0.336018,-0.336018 -0.336018,-0.56003 0,-0.784042 0.392021,-0.952051 0.448024,-0.168009 1.064057,-0.280015 2.128113,-0.336018 4.200224,-0.728039 2.072111,-0.448024 4.200225,-0.448024 z"
         style="fill:#000000;stroke-width:0.291682"
         id="path272" />
    </g>
    <path
       id="path401"
       style="fill:#000000;stroke-width:0.211123"
       d="m 70.915499,12.152706 a 4.6537108,3.4204774 0 0 1 -4.653711,3.420478 4.6537108,3.4204774 0 0 1 -4.653711,-3.420478 4.6537108,3.4204774 0 0 1 4.653711,-3.4204772 4.6537108,3.4204774 0 0 1 4.653711,3.4204772 z" />
    <path
       id="path401-5"
       style="fill:#000000;stroke-width:0.211123"
       d="m 27.356867,20.535898 a 4.6537108,3.4204774 0 0 1 -4.653711,3.420478 4.6537108,3.4204774 0 0 1 -4.653711,-3.420478 4.6537108,3.4204774 0 0 1 4.653711,-3.420477 4.6537108,3.4204774 0 0 1 4.653711,3.420477 z" />
    <path
       id="path401-29"
       style="fill:#000000;stroke-width:0.211123"
       d="m 56.395964,37.302288 a 4.6537108,3.4204774 0 0 1 -4.653711,3.420477 4.6537108,3.4204774 0 0 1 -4.653711,-3.420477 4.6537108,3.4204774 0 0 1 4.653711,-3.420477 4.6537108,3.4204774 0 0 1 4.653711,3.420477 z" />
    <path
       id="path401-20"
       style="fill:#000000;stroke-width:0.211123"
       d="m 41.876398,28.919094 a 4.6537108,3.4204774 0 0 1 -4.653711,3.420477 4.6537108,3.4204774 0 0 1 -4.653711,-3.420477 4.6537108,3.4204774 0 0 1 4.653711,-3.420477 4.6537108,3.4204774 0 0 1 4.653711,3.420477 z" />
    <path
       id="path401-5-7"
       style="fill:#000000;stroke-width:0.211123"
       d="M 56.395964,3.915297 A 4.6537108,3.4204774 0 0 1 51.742253,7.3357744 4.6537108,3.4204774 0 0 1 47.088542,3.915297 4.6537108,3.4204774 0 0 1 51.742253,0.49481964 4.6537108,3.4204774 0 0 1 56.395964,3.915297 Z" />
    <path
       id="path401-29-0"
       style="fill:#000000;stroke-width:0.211123"
       d="m 86.365824,20.535898 a 4.6537108,3.4204774 0 0 1 -4.653711,3.420478 4.6537108,3.4204774 0 0 1 -4.653711,-3.420478 4.6537108,3.4204774 0 0 1 4.653711,-3.420477 4.6537108,3.4204774 0 0 1 4.653711,3.420477 z" />
  </g>
</svg>
