<svg xmlns="http://www.w3.org/2000/svg" x="0px" y="0px" viewBox="-98 -98 196 196">
    <path d="M-100,1 a2.5,1 0 0,0 200,0" fill="none" stroke="white" stroke-width="6" transform="rotate(155)" stroke-linecap="round" />
    <path d="M-94,1 a2.76,1 0 0,0 188,0" fill="none" stroke="black" stroke-width="6" transform="rotate(155)" stroke-linecap="round" />
    <path d="M-88,1 a3.13,1 0 0,0 176,0" fill="none" stroke="white" stroke-width="6" transform="rotate(155)" stroke-linecap="round" />
    <circle fill="black" cx="0" cy="0" r="50" stroke="white" stroke-width="6" />
    <path d="M-100,-1 a2.5,1 0 0,0 200,0" fill="none" stroke="white" stroke-width="6" transform="rotate(-25)" stroke-linecap="round" />
    <path d="M-94,-1 a2.76,1 0 0,0 188,0" fill="none" stroke="black" stroke-width="6" transform="rotate(-25)" stroke-linecap="round" />
    <path d="M-88,-1 a3.13,1 0 0,0 176,0" fill="none" stroke="white" stroke-width="6" transform="rotate(-25)" stroke-linecap="round" />
    <circle fill="black" cx="38" cy="18" r="23" stroke="white" stroke-width="6" />
</svg>
